<?xml version="1.0" encoding="utf-8" standalone="no"?>
<!DOCTYPE svg PUBLIC "-//W3C//DTD SVG 1.1//EN"
  "http://www.w3.org/Graphics/SVG/1.1/DTD/svg11.dtd">
<svg xmlns:xlink="http://www.w3.org/1999/xlink" width="576pt" height="360pt" viewBox="0 0 576 360" xmlns="http://www.w3.org/2000/svg" version="1.1">
 <metadata>
  <rdf:RDF xmlns:dc="http://purl.org/dc/elements/1.1/" xmlns:cc="http://creativecommons.org/ns#" xmlns:rdf="http://www.w3.org/1999/02/22-rdf-syntax-ns#">
   <cc:Work>
    <dc:type rdf:resource="http://purl.org/dc/dcmitype/StillImage"/>
    <dc:date>2024-11-29T22:23:43.368143</dc:date>
    <dc:format>image/svg+xml</dc:format>
    <dc:creator>
     <cc:Agent>
      <dc:title>Matplotlib v3.7.2, https://matplotlib.org/</dc:title>
     </cc:Agent>
    </dc:creator>
   </cc:Work>
  </rdf:RDF>
 </metadata>
 <defs>
  <style type="text/css">*{stroke-linejoin: round; stroke-linecap: butt}</style>
 </defs>
 <g id="figure_1">
  <g id="patch_1">
   <path d="M 0 360 
L 576 360 
L 576 0 
L 0 0 
z
" style="fill: #ffffff"/>
  </g>
  <g id="axes_1">
   <g id="patch_2">
    <path d="M 72 320.4 
L 518.4 320.4 
L 518.4 43.2 
L 72 43.2 
z
" style="fill: #ffffff"/>
   </g>
   <g id="matplotlib.axis_1">
    <g id="xtick_1">
     <g id="line2d_1">
      <path d="M 92.290909 320.4 
L 92.290909 43.2 
" clip-path="url(#p651e6a17dd)" style="fill: none; stroke: #b0b0b0; stroke-width: 0.8; stroke-linecap: square"/>
     </g>
     <g id="line2d_2">
      <defs>
       <path id="m5968b0502a" d="M 0 0 
L 0 3.5 
" style="stroke: #000000; stroke-width: 0.8"/>
      </defs>
      <g>
       <use xlink:href="#m5968b0502a" x="92.290909" y="320.4" style="stroke: #000000; stroke-width: 0.8"/>
      </g>
     </g>
     <g id="text_1">
      <!-- 0 -->
      <g transform="translate(89.109659 334.998438) scale(0.1 -0.1)">
       <defs>
        <path id="DejaVuSans-30" d="M 2034 4250 
Q 1547 4250 1301 3770 
Q 1056 3291 1056 2328 
Q 1056 1369 1301 889 
Q 1547 409 2034 409 
Q 2525 409 2770 889 
Q 3016 1369 3016 2328 
Q 3016 3291 2770 3770 
Q 2525 4250 2034 4250 
z
M 2034 4750 
Q 2819 4750 3233 4129 
Q 3647 3509 3647 2328 
Q 3647 1150 3233 529 
Q 2819 -91 2034 -91 
Q 1250 -91 836 529 
Q 422 1150 422 2328 
Q 422 3509 836 4129 
Q 1250 4750 2034 4750 
z
" transform="scale(0.015625)"/>
       </defs>
       <use xlink:href="#DejaVuSans-30"/>
      </g>
     </g>
    </g>
    <g id="xtick_2">
     <g id="line2d_3">
      <path d="M 173.53579 320.4 
L 173.53579 43.2 
" clip-path="url(#p651e6a17dd)" style="fill: none; stroke: #b0b0b0; stroke-width: 0.8; stroke-linecap: square"/>
     </g>
     <g id="line2d_4">
      <g>
       <use xlink:href="#m5968b0502a" x="173.53579" y="320.4" style="stroke: #000000; stroke-width: 0.8"/>
      </g>
     </g>
     <g id="text_2">
      <!-- 200 -->
      <g transform="translate(163.99204 334.998438) scale(0.1 -0.1)">
       <defs>
        <path id="DejaVuSans-32" d="M 1228 531 
L 3431 531 
L 3431 0 
L 469 0 
L 469 531 
Q 828 903 1448 1529 
Q 2069 2156 2228 2338 
Q 2531 2678 2651 2914 
Q 2772 3150 2772 3378 
Q 2772 3750 2511 3984 
Q 2250 4219 1831 4219 
Q 1534 4219 1204 4116 
Q 875 4013 500 3803 
L 500 4441 
Q 881 4594 1212 4672 
Q 1544 4750 1819 4750 
Q 2544 4750 2975 4387 
Q 3406 4025 3406 3419 
Q 3406 3131 3298 2873 
Q 3191 2616 2906 2266 
Q 2828 2175 2409 1742 
Q 1991 1309 1228 531 
z
" transform="scale(0.015625)"/>
       </defs>
       <use xlink:href="#DejaVuSans-32"/>
       <use xlink:href="#DejaVuSans-30" x="63.623047"/>
       <use xlink:href="#DejaVuSans-30" x="127.246094"/>
      </g>
     </g>
    </g>
    <g id="xtick_3">
     <g id="line2d_5">
      <path d="M 254.780672 320.4 
L 254.780672 43.2 
" clip-path="url(#p651e6a17dd)" style="fill: none; stroke: #b0b0b0; stroke-width: 0.8; stroke-linecap: square"/>
     </g>
     <g id="line2d_6">
      <g>
       <use xlink:href="#m5968b0502a" x="254.780672" y="320.4" style="stroke: #000000; stroke-width: 0.8"/>
      </g>
     </g>
     <g id="text_3">
      <!-- 400 -->
      <g transform="translate(245.236922 334.998438) scale(0.1 -0.1)">
       <defs>
        <path id="DejaVuSans-34" d="M 2419 4116 
L 825 1625 
L 2419 1625 
L 2419 4116 
z
M 2253 4666 
L 3047 4666 
L 3047 1625 
L 3713 1625 
L 3713 1100 
L 3047 1100 
L 3047 0 
L 2419 0 
L 2419 1100 
L 313 1100 
L 313 1709 
L 2253 4666 
z
" transform="scale(0.015625)"/>
       </defs>
       <use xlink:href="#DejaVuSans-34"/>
       <use xlink:href="#DejaVuSans-30" x="63.623047"/>
       <use xlink:href="#DejaVuSans-30" x="127.246094"/>
      </g>
     </g>
    </g>
    <g id="xtick_4">
     <g id="line2d_7">
      <path d="M 336.025553 320.4 
L 336.025553 43.2 
" clip-path="url(#p651e6a17dd)" style="fill: none; stroke: #b0b0b0; stroke-width: 0.8; stroke-linecap: square"/>
     </g>
     <g id="line2d_8">
      <g>
       <use xlink:href="#m5968b0502a" x="336.025553" y="320.4" style="stroke: #000000; stroke-width: 0.8"/>
      </g>
     </g>
     <g id="text_4">
      <!-- 600 -->
      <g transform="translate(326.481803 334.998438) scale(0.1 -0.1)">
       <defs>
        <path id="DejaVuSans-36" d="M 2113 2584 
Q 1688 2584 1439 2293 
Q 1191 2003 1191 1497 
Q 1191 994 1439 701 
Q 1688 409 2113 409 
Q 2538 409 2786 701 
Q 3034 994 3034 1497 
Q 3034 2003 2786 2293 
Q 2538 2584 2113 2584 
z
M 3366 4563 
L 3366 3988 
Q 3128 4100 2886 4159 
Q 2644 4219 2406 4219 
Q 1781 4219 1451 3797 
Q 1122 3375 1075 2522 
Q 1259 2794 1537 2939 
Q 1816 3084 2150 3084 
Q 2853 3084 3261 2657 
Q 3669 2231 3669 1497 
Q 3669 778 3244 343 
Q 2819 -91 2113 -91 
Q 1303 -91 875 529 
Q 447 1150 447 2328 
Q 447 3434 972 4092 
Q 1497 4750 2381 4750 
Q 2619 4750 2861 4703 
Q 3103 4656 3366 4563 
z
" transform="scale(0.015625)"/>
       </defs>
       <use xlink:href="#DejaVuSans-36"/>
       <use xlink:href="#DejaVuSans-30" x="63.623047"/>
       <use xlink:href="#DejaVuSans-30" x="127.246094"/>
      </g>
     </g>
    </g>
    <g id="xtick_5">
     <g id="line2d_9">
      <path d="M 417.270434 320.4 
L 417.270434 43.2 
" clip-path="url(#p651e6a17dd)" style="fill: none; stroke: #b0b0b0; stroke-width: 0.8; stroke-linecap: square"/>
     </g>
     <g id="line2d_10">
      <g>
       <use xlink:href="#m5968b0502a" x="417.270434" y="320.4" style="stroke: #000000; stroke-width: 0.8"/>
      </g>
     </g>
     <g id="text_5">
      <!-- 800 -->
      <g transform="translate(407.726684 334.998438) scale(0.1 -0.1)">
       <defs>
        <path id="DejaVuSans-38" d="M 2034 2216 
Q 1584 2216 1326 1975 
Q 1069 1734 1069 1313 
Q 1069 891 1326 650 
Q 1584 409 2034 409 
Q 2484 409 2743 651 
Q 3003 894 3003 1313 
Q 3003 1734 2745 1975 
Q 2488 2216 2034 2216 
z
M 1403 2484 
Q 997 2584 770 2862 
Q 544 3141 544 3541 
Q 544 4100 942 4425 
Q 1341 4750 2034 4750 
Q 2731 4750 3128 4425 
Q 3525 4100 3525 3541 
Q 3525 3141 3298 2862 
Q 3072 2584 2669 2484 
Q 3125 2378 3379 2068 
Q 3634 1759 3634 1313 
Q 3634 634 3220 271 
Q 2806 -91 2034 -91 
Q 1263 -91 848 271 
Q 434 634 434 1313 
Q 434 1759 690 2068 
Q 947 2378 1403 2484 
z
M 1172 3481 
Q 1172 3119 1398 2916 
Q 1625 2713 2034 2713 
Q 2441 2713 2670 2916 
Q 2900 3119 2900 3481 
Q 2900 3844 2670 4047 
Q 2441 4250 2034 4250 
Q 1625 4250 1398 4047 
Q 1172 3844 1172 3481 
z
" transform="scale(0.015625)"/>
       </defs>
       <use xlink:href="#DejaVuSans-38"/>
       <use xlink:href="#DejaVuSans-30" x="63.623047"/>
       <use xlink:href="#DejaVuSans-30" x="127.246094"/>
      </g>
     </g>
    </g>
    <g id="xtick_6">
     <g id="line2d_11">
      <path d="M 498.515315 320.4 
L 498.515315 43.2 
" clip-path="url(#p651e6a17dd)" style="fill: none; stroke: #b0b0b0; stroke-width: 0.8; stroke-linecap: square"/>
     </g>
     <g id="line2d_12">
      <g>
       <use xlink:href="#m5968b0502a" x="498.515315" y="320.4" style="stroke: #000000; stroke-width: 0.8"/>
      </g>
     </g>
     <g id="text_6">
      <!-- 1000 -->
      <g transform="translate(485.790315 334.998438) scale(0.1 -0.1)">
       <defs>
        <path id="DejaVuSans-31" d="M 794 531 
L 1825 531 
L 1825 4091 
L 703 3866 
L 703 4441 
L 1819 4666 
L 2450 4666 
L 2450 531 
L 3481 531 
L 3481 0 
L 794 0 
L 794 531 
z
" transform="scale(0.015625)"/>
       </defs>
       <use xlink:href="#DejaVuSans-31"/>
       <use xlink:href="#DejaVuSans-30" x="63.623047"/>
       <use xlink:href="#DejaVuSans-30" x="127.246094"/>
       <use xlink:href="#DejaVuSans-30" x="190.869141"/>
      </g>
     </g>
    </g>
    <g id="text_7">
     <!-- Iterations -->
     <g transform="translate(271.386719 348.676562) scale(0.1 -0.1)">
      <defs>
       <path id="DejaVuSans-49" d="M 628 4666 
L 1259 4666 
L 1259 0 
L 628 0 
L 628 4666 
z
" transform="scale(0.015625)"/>
       <path id="DejaVuSans-74" d="M 1172 4494 
L 1172 3500 
L 2356 3500 
L 2356 3053 
L 1172 3053 
L 1172 1153 
Q 1172 725 1289 603 
Q 1406 481 1766 481 
L 2356 481 
L 2356 0 
L 1766 0 
Q 1100 0 847 248 
Q 594 497 594 1153 
L 594 3053 
L 172 3053 
L 172 3500 
L 594 3500 
L 594 4494 
L 1172 4494 
z
" transform="scale(0.015625)"/>
       <path id="DejaVuSans-65" d="M 3597 1894 
L 3597 1613 
L 953 1613 
Q 991 1019 1311 708 
Q 1631 397 2203 397 
Q 2534 397 2845 478 
Q 3156 559 3463 722 
L 3463 178 
Q 3153 47 2828 -22 
Q 2503 -91 2169 -91 
Q 1331 -91 842 396 
Q 353 884 353 1716 
Q 353 2575 817 3079 
Q 1281 3584 2069 3584 
Q 2775 3584 3186 3129 
Q 3597 2675 3597 1894 
z
M 3022 2063 
Q 3016 2534 2758 2815 
Q 2500 3097 2075 3097 
Q 1594 3097 1305 2825 
Q 1016 2553 972 2059 
L 3022 2063 
z
" transform="scale(0.015625)"/>
       <path id="DejaVuSans-72" d="M 2631 2963 
Q 2534 3019 2420 3045 
Q 2306 3072 2169 3072 
Q 1681 3072 1420 2755 
Q 1159 2438 1159 1844 
L 1159 0 
L 581 0 
L 581 3500 
L 1159 3500 
L 1159 2956 
Q 1341 3275 1631 3429 
Q 1922 3584 2338 3584 
Q 2397 3584 2469 3576 
Q 2541 3569 2628 3553 
L 2631 2963 
z
" transform="scale(0.015625)"/>
       <path id="DejaVuSans-61" d="M 2194 1759 
Q 1497 1759 1228 1600 
Q 959 1441 959 1056 
Q 959 750 1161 570 
Q 1363 391 1709 391 
Q 2188 391 2477 730 
Q 2766 1069 2766 1631 
L 2766 1759 
L 2194 1759 
z
M 3341 1997 
L 3341 0 
L 2766 0 
L 2766 531 
Q 2569 213 2275 61 
Q 1981 -91 1556 -91 
Q 1019 -91 701 211 
Q 384 513 384 1019 
Q 384 1609 779 1909 
Q 1175 2209 1959 2209 
L 2766 2209 
L 2766 2266 
Q 2766 2663 2505 2880 
Q 2244 3097 1772 3097 
Q 1472 3097 1187 3025 
Q 903 2953 641 2809 
L 641 3341 
Q 956 3463 1253 3523 
Q 1550 3584 1831 3584 
Q 2591 3584 2966 3190 
Q 3341 2797 3341 1997 
z
" transform="scale(0.015625)"/>
       <path id="DejaVuSans-69" d="M 603 3500 
L 1178 3500 
L 1178 0 
L 603 0 
L 603 3500 
z
M 603 4863 
L 1178 4863 
L 1178 4134 
L 603 4134 
L 603 4863 
z
" transform="scale(0.015625)"/>
       <path id="DejaVuSans-6f" d="M 1959 3097 
Q 1497 3097 1228 2736 
Q 959 2375 959 1747 
Q 959 1119 1226 758 
Q 1494 397 1959 397 
Q 2419 397 2687 759 
Q 2956 1122 2956 1747 
Q 2956 2369 2687 2733 
Q 2419 3097 1959 3097 
z
M 1959 3584 
Q 2709 3584 3137 3096 
Q 3566 2609 3566 1747 
Q 3566 888 3137 398 
Q 2709 -91 1959 -91 
Q 1206 -91 779 398 
Q 353 888 353 1747 
Q 353 2609 779 3096 
Q 1206 3584 1959 3584 
z
" transform="scale(0.015625)"/>
       <path id="DejaVuSans-6e" d="M 3513 2113 
L 3513 0 
L 2938 0 
L 2938 2094 
Q 2938 2591 2744 2837 
Q 2550 3084 2163 3084 
Q 1697 3084 1428 2787 
Q 1159 2491 1159 1978 
L 1159 0 
L 581 0 
L 581 3500 
L 1159 3500 
L 1159 2956 
Q 1366 3272 1645 3428 
Q 1925 3584 2291 3584 
Q 2894 3584 3203 3211 
Q 3513 2838 3513 2113 
z
" transform="scale(0.015625)"/>
       <path id="DejaVuSans-73" d="M 2834 3397 
L 2834 2853 
Q 2591 2978 2328 3040 
Q 2066 3103 1784 3103 
Q 1356 3103 1142 2972 
Q 928 2841 928 2578 
Q 928 2378 1081 2264 
Q 1234 2150 1697 2047 
L 1894 2003 
Q 2506 1872 2764 1633 
Q 3022 1394 3022 966 
Q 3022 478 2636 193 
Q 2250 -91 1575 -91 
Q 1294 -91 989 -36 
Q 684 19 347 128 
L 347 722 
Q 666 556 975 473 
Q 1284 391 1588 391 
Q 1994 391 2212 530 
Q 2431 669 2431 922 
Q 2431 1156 2273 1281 
Q 2116 1406 1581 1522 
L 1381 1569 
Q 847 1681 609 1914 
Q 372 2147 372 2553 
Q 372 3047 722 3315 
Q 1072 3584 1716 3584 
Q 2034 3584 2315 3537 
Q 2597 3491 2834 3397 
z
" transform="scale(0.015625)"/>
      </defs>
      <use xlink:href="#DejaVuSans-49"/>
      <use xlink:href="#DejaVuSans-74" x="29.492188"/>
      <use xlink:href="#DejaVuSans-65" x="68.701172"/>
      <use xlink:href="#DejaVuSans-72" x="130.224609"/>
      <use xlink:href="#DejaVuSans-61" x="171.337891"/>
      <use xlink:href="#DejaVuSans-74" x="232.617188"/>
      <use xlink:href="#DejaVuSans-69" x="271.826172"/>
      <use xlink:href="#DejaVuSans-6f" x="299.609375"/>
      <use xlink:href="#DejaVuSans-6e" x="360.791016"/>
      <use xlink:href="#DejaVuSans-73" x="424.169922"/>
     </g>
    </g>
   </g>
   <g id="matplotlib.axis_2">
    <g id="ytick_1">
     <g id="line2d_13">
      <path d="M 72 307.870086 
L 518.4 307.870086 
" clip-path="url(#p651e6a17dd)" style="fill: none; stroke: #b0b0b0; stroke-width: 0.8; stroke-linecap: square"/>
     </g>
     <g id="line2d_14">
      <defs>
       <path id="m312739e36a" d="M 0 0 
L -3.5 0 
" style="stroke: #000000; stroke-width: 0.8"/>
      </defs>
      <g>
       <use xlink:href="#m312739e36a" x="72" y="307.870086" style="stroke: #000000; stroke-width: 0.8"/>
      </g>
     </g>
     <g id="text_8">
      <!-- 0 -->
      <g transform="translate(58.6375 311.669305) scale(0.1 -0.1)">
       <use xlink:href="#DejaVuSans-30"/>
      </g>
     </g>
    </g>
    <g id="ytick_2">
     <g id="line2d_15">
      <path d="M 72 246.890324 
L 518.4 246.890324 
" clip-path="url(#p651e6a17dd)" style="fill: none; stroke: #b0b0b0; stroke-width: 0.8; stroke-linecap: square"/>
     </g>
     <g id="line2d_16">
      <g>
       <use xlink:href="#m312739e36a" x="72" y="246.890324" style="stroke: #000000; stroke-width: 0.8"/>
      </g>
     </g>
     <g id="text_9">
      <!-- 10000 -->
      <g transform="translate(33.1875 250.689543) scale(0.1 -0.1)">
       <use xlink:href="#DejaVuSans-31"/>
       <use xlink:href="#DejaVuSans-30" x="63.623047"/>
       <use xlink:href="#DejaVuSans-30" x="127.246094"/>
       <use xlink:href="#DejaVuSans-30" x="190.869141"/>
       <use xlink:href="#DejaVuSans-30" x="254.492188"/>
      </g>
     </g>
    </g>
    <g id="ytick_3">
     <g id="line2d_17">
      <path d="M 72 185.910562 
L 518.4 185.910562 
" clip-path="url(#p651e6a17dd)" style="fill: none; stroke: #b0b0b0; stroke-width: 0.8; stroke-linecap: square"/>
     </g>
     <g id="line2d_18">
      <g>
       <use xlink:href="#m312739e36a" x="72" y="185.910562" style="stroke: #000000; stroke-width: 0.8"/>
      </g>
     </g>
     <g id="text_10">
      <!-- 20000 -->
      <g transform="translate(33.1875 189.709781) scale(0.1 -0.1)">
       <use xlink:href="#DejaVuSans-32"/>
       <use xlink:href="#DejaVuSans-30" x="63.623047"/>
       <use xlink:href="#DejaVuSans-30" x="127.246094"/>
       <use xlink:href="#DejaVuSans-30" x="190.869141"/>
       <use xlink:href="#DejaVuSans-30" x="254.492188"/>
      </g>
     </g>
    </g>
    <g id="ytick_4">
     <g id="line2d_19">
      <path d="M 72 124.9308 
L 518.4 124.9308 
" clip-path="url(#p651e6a17dd)" style="fill: none; stroke: #b0b0b0; stroke-width: 0.8; stroke-linecap: square"/>
     </g>
     <g id="line2d_20">
      <g>
       <use xlink:href="#m312739e36a" x="72" y="124.9308" style="stroke: #000000; stroke-width: 0.8"/>
      </g>
     </g>
     <g id="text_11">
      <!-- 30000 -->
      <g transform="translate(33.1875 128.730019) scale(0.1 -0.1)">
       <defs>
        <path id="DejaVuSans-33" d="M 2597 2516 
Q 3050 2419 3304 2112 
Q 3559 1806 3559 1356 
Q 3559 666 3084 287 
Q 2609 -91 1734 -91 
Q 1441 -91 1130 -33 
Q 819 25 488 141 
L 488 750 
Q 750 597 1062 519 
Q 1375 441 1716 441 
Q 2309 441 2620 675 
Q 2931 909 2931 1356 
Q 2931 1769 2642 2001 
Q 2353 2234 1838 2234 
L 1294 2234 
L 1294 2753 
L 1863 2753 
Q 2328 2753 2575 2939 
Q 2822 3125 2822 3475 
Q 2822 3834 2567 4026 
Q 2313 4219 1838 4219 
Q 1578 4219 1281 4162 
Q 984 4106 628 3988 
L 628 4550 
Q 988 4650 1302 4700 
Q 1616 4750 1894 4750 
Q 2613 4750 3031 4423 
Q 3450 4097 3450 3541 
Q 3450 3153 3228 2886 
Q 3006 2619 2597 2516 
z
" transform="scale(0.015625)"/>
       </defs>
       <use xlink:href="#DejaVuSans-33"/>
       <use xlink:href="#DejaVuSans-30" x="63.623047"/>
       <use xlink:href="#DejaVuSans-30" x="127.246094"/>
       <use xlink:href="#DejaVuSans-30" x="190.869141"/>
       <use xlink:href="#DejaVuSans-30" x="254.492188"/>
      </g>
     </g>
    </g>
    <g id="ytick_5">
     <g id="line2d_21">
      <path d="M 72 63.951038 
L 518.4 63.951038 
" clip-path="url(#p651e6a17dd)" style="fill: none; stroke: #b0b0b0; stroke-width: 0.8; stroke-linecap: square"/>
     </g>
     <g id="line2d_22">
      <g>
       <use xlink:href="#m312739e36a" x="72" y="63.951038" style="stroke: #000000; stroke-width: 0.8"/>
      </g>
     </g>
     <g id="text_12">
      <!-- 40000 -->
      <g transform="translate(33.1875 67.750257) scale(0.1 -0.1)">
       <use xlink:href="#DejaVuSans-34"/>
       <use xlink:href="#DejaVuSans-30" x="63.623047"/>
       <use xlink:href="#DejaVuSans-30" x="127.246094"/>
       <use xlink:href="#DejaVuSans-30" x="190.869141"/>
       <use xlink:href="#DejaVuSans-30" x="254.492188"/>
      </g>
     </g>
    </g>
    <g id="text_13">
     <!-- Population -->
     <g transform="translate(27.107812 208.066406) rotate(-90) scale(0.1 -0.1)">
      <defs>
       <path id="DejaVuSans-50" d="M 1259 4147 
L 1259 2394 
L 2053 2394 
Q 2494 2394 2734 2622 
Q 2975 2850 2975 3272 
Q 2975 3691 2734 3919 
Q 2494 4147 2053 4147 
L 1259 4147 
z
M 628 4666 
L 2053 4666 
Q 2838 4666 3239 4311 
Q 3641 3956 3641 3272 
Q 3641 2581 3239 2228 
Q 2838 1875 2053 1875 
L 1259 1875 
L 1259 0 
L 628 0 
L 628 4666 
z
" transform="scale(0.015625)"/>
       <path id="DejaVuSans-70" d="M 1159 525 
L 1159 -1331 
L 581 -1331 
L 581 3500 
L 1159 3500 
L 1159 2969 
Q 1341 3281 1617 3432 
Q 1894 3584 2278 3584 
Q 2916 3584 3314 3078 
Q 3713 2572 3713 1747 
Q 3713 922 3314 415 
Q 2916 -91 2278 -91 
Q 1894 -91 1617 61 
Q 1341 213 1159 525 
z
M 3116 1747 
Q 3116 2381 2855 2742 
Q 2594 3103 2138 3103 
Q 1681 3103 1420 2742 
Q 1159 2381 1159 1747 
Q 1159 1113 1420 752 
Q 1681 391 2138 391 
Q 2594 391 2855 752 
Q 3116 1113 3116 1747 
z
" transform="scale(0.015625)"/>
       <path id="DejaVuSans-75" d="M 544 1381 
L 544 3500 
L 1119 3500 
L 1119 1403 
Q 1119 906 1312 657 
Q 1506 409 1894 409 
Q 2359 409 2629 706 
Q 2900 1003 2900 1516 
L 2900 3500 
L 3475 3500 
L 3475 0 
L 2900 0 
L 2900 538 
Q 2691 219 2414 64 
Q 2138 -91 1772 -91 
Q 1169 -91 856 284 
Q 544 659 544 1381 
z
M 1991 3584 
L 1991 3584 
z
" transform="scale(0.015625)"/>
       <path id="DejaVuSans-6c" d="M 603 4863 
L 1178 4863 
L 1178 0 
L 603 0 
L 603 4863 
z
" transform="scale(0.015625)"/>
      </defs>
      <use xlink:href="#DejaVuSans-50"/>
      <use xlink:href="#DejaVuSans-6f" x="56.677734"/>
      <use xlink:href="#DejaVuSans-70" x="117.859375"/>
      <use xlink:href="#DejaVuSans-75" x="181.335938"/>
      <use xlink:href="#DejaVuSans-6c" x="244.714844"/>
      <use xlink:href="#DejaVuSans-61" x="272.498047"/>
      <use xlink:href="#DejaVuSans-74" x="333.777344"/>
      <use xlink:href="#DejaVuSans-69" x="372.986328"/>
      <use xlink:href="#DejaVuSans-6f" x="400.769531"/>
      <use xlink:href="#DejaVuSans-6e" x="461.951172"/>
     </g>
    </g>
   </g>
   <g id="line2d_23">
    <path d="M 92.290909 307.748126 
L 97.571826 307.796938 
L 102.446519 307.661018 
L 104.477641 307.399127 
L 105.696314 307.033712 
L 106.508763 306.60847 
L 107.321212 305.938903 
L 108.133661 304.902624 
L 108.94611 303.368297 
L 109.758559 301.293974 
L 110.977232 297.88199 
L 111.383456 297.080795 
L 111.789681 296.671499 
L 112.195905 296.742699 
L 112.602129 297.302417 
L 113.414578 299.497426 
L 114.633251 303.257948 
L 115.4457 305.029269 
L 116.258149 306.150269 
L 117.070598 306.817115 
L 117.883047 307.20703 
L 119.10172 307.514116 
L 121.132842 307.712763 
L 125.195086 307.798195 
L 131.288452 307.711463 
L 133.725799 307.480775 
L 134.944472 307.193282 
L 135.756921 306.860286 
L 136.569369 306.334827 
L 137.381818 305.511971 
L 138.194267 304.259 
L 139.006716 302.467151 
L 141.037838 297.126717 
L 141.444062 296.685535 
L 141.850287 296.720864 
L 142.256511 297.24721 
L 143.06896 299.404073 
L 144.287633 303.180845 
L 145.100082 304.977912 
L 145.912531 306.119103 
L 146.72498 306.79884 
L 147.537428 307.196334 
L 148.756102 307.509176 
L 150.787224 307.711228 
L 154.849468 307.798073 
L 160.942834 307.712868 
L 163.38018 307.485595 
L 164.598853 307.202652 
L 165.411302 306.875058 
L 166.223751 306.358115 
L 167.0362 305.54814 
L 167.848649 304.312934 
L 168.661097 302.541007 
L 170.692219 297.174634 
L 171.098444 296.702064 
L 171.504668 296.701603 
L 171.910893 297.194176 
L 172.317117 298.110445 
L 174.348239 304.105078 
L 175.160688 305.578298 
L 175.973137 306.479707 
L 176.785586 307.009836 
L 178.004259 307.423824 
L 179.629156 307.654461 
L 182.472727 307.776542 
L 188.566093 307.775641 
L 192.222113 307.597021 
L 193.847011 307.32589 
L 195.065684 306.889589 
L 195.878133 306.381029 
L 196.690581 305.583759 
L 197.50303 304.366159 
L 198.315479 302.614197 
L 200.346601 297.224501 
L 200.752826 296.721063 
L 201.15905 296.684926 
L 201.565274 297.14336 
L 201.971499 298.033226 
L 204.408845 304.872601 
L 205.221294 306.054988 
L 206.033743 306.761213 
L 206.846192 307.174321 
L 208.064865 307.499028 
L 210.095987 307.708084 
L 214.158231 307.797816 
L 220.251597 307.715621 
L 222.688943 307.495012 
L 223.907617 307.220942 
L 225.12629 306.682122 
L 225.938739 306.054456 
L 226.751188 305.079318 
L 227.563636 303.622981 
L 228.376085 301.620242 
L 230.000983 297.276268 
L 230.407207 296.742506 
L 230.813432 296.670841 
L 231.219656 297.094802 
L 231.62588 297.957547 
L 234.063227 304.81863 
L 234.875676 306.022019 
L 235.688124 306.741846 
L 236.500573 307.162996 
L 237.719247 307.493816 
L 239.750369 307.706475 
L 243.406388 307.79535 
L 249.499754 307.733903 
L 251.937101 307.55681 
L 253.561998 307.229867 
L 254.780672 306.699793 
L 255.59312 306.082215 
L 256.405569 305.121911 
L 257.218018 303.684824 
L 258.030467 301.700599 
L 259.655364 297.329886 
L 260.061589 296.766365 
L 260.467813 296.659354 
L 260.874038 297.048541 
L 261.280262 297.883467 
L 262.498935 301.657372 
L 263.311384 303.904587 
L 264.123833 305.450727 
L 264.936282 306.403724 
L 265.748731 306.965439 
L 266.967404 307.403677 
L 268.592301 307.64687 
L 271.435872 307.7749 
L 277.529238 307.77717 
L 281.185258 307.606054 
L 282.810156 307.347292 
L 284.028829 306.931779 
L 284.841278 306.447581 
L 285.653726 305.687388 
L 286.466175 304.521624 
L 287.278624 302.829689 
L 288.497297 299.440598 
L 289.309746 297.385307 
L 289.715971 296.792611 
L 290.122195 296.650467 
L 290.528419 297.004615 
L 290.934644 297.811045 
L 291.747093 300.249636 
L 292.965766 303.835857 
L 293.778215 305.406674 
L 294.590663 306.377411 
L 295.403112 306.950059 
L 296.621785 307.39671 
L 298.246683 307.644254 
L 301.090254 307.774335 
L 307.18362 307.777665 
L 310.83964 307.608976 
L 312.464537 307.354201 
L 313.68321 306.945387 
L 314.495659 306.469053 
L 315.308108 305.720876 
L 316.120557 304.572058 
L 316.933006 302.900136 
L 318.151679 299.525291 
L 318.964128 297.442478 
L 319.370352 296.82121 
L 319.776577 296.644182 
L 320.182801 296.963057 
L 320.589025 297.740339 
L 321.401474 300.153969 
L 322.620147 303.766178 
L 323.432596 305.361839 
L 324.245045 306.350591 
L 325.057494 306.93438 
L 325.869943 307.275758 
L 327.088616 307.545999 
L 329.119738 307.72275 
L 333.588206 307.79982 
L 339.275348 307.701171 
L 341.30647 307.512992 
L 342.525143 307.255793 
L 343.743817 306.751101 
L 344.556265 306.162879 
L 345.368714 305.245995 
L 346.181163 303.865964 
L 346.993612 301.938471 
L 348.618509 297.501348 
L 349.024734 296.852131 
L 349.430958 296.640494 
L 349.837183 296.923901 
L 350.243407 297.671406 
L 351.055856 300.058403 
L 352.274529 303.695549 
L 353.086978 305.316214 
L 353.899427 306.323255 
L 354.711876 306.918394 
L 355.524324 307.266378 
L 356.742998 307.541632 
L 358.77412 307.721374 
L 362.836364 307.798833 
L 368.92973 307.702721 
L 371.367076 307.450638 
L 372.585749 307.134553 
L 373.398198 306.76765 
L 374.210647 306.188917 
L 375.023096 305.286146 
L 375.835545 303.924884 
L 376.647993 302.01664 
L 378.272891 297.561866 
L 378.679115 296.885336 
L 379.08534 296.639401 
L 379.491564 296.887177 
L 379.897789 297.604301 
L 380.710238 299.96299 
L 381.928911 303.623973 
L 382.74136 305.269788 
L 383.553808 306.295393 
L 384.366257 306.902097 
L 385.178706 307.256819 
L 386.397379 307.537186 
L 388.428501 307.719975 
L 392.490745 307.798736 
L 398.584111 307.704249 
L 401.021458 307.455924 
L 402.240131 307.144871 
L 403.05258 306.78393 
L 403.865029 306.214541 
L 404.677477 305.325703 
L 405.489926 303.983076 
L 406.302375 302.094224 
L 407.927273 297.623978 
L 408.333497 296.92079 
L 408.739722 296.640894 
L 409.145946 296.852911 
L 409.55217 297.53908 
L 410.364619 299.867786 
L 411.583292 303.551453 
L 412.395741 305.222552 
L 413.20819 306.266997 
L 414.020639 306.885482 
L 414.833088 307.247077 
L 416.051761 307.532662 
L 418.082883 307.718555 
L 422.145127 307.798634 
L 428.238493 307.705755 
L 430.675839 307.461129 
L 431.894513 307.155022 
L 432.706962 306.799945 
L 433.51941 306.239755 
L 434.331859 305.364671 
L 435.144308 304.040543 
L 435.956757 302.171208 
L 437.581654 297.687632 
L 437.987879 296.958452 
L 438.394103 296.644963 
L 438.800328 296.821131 
L 439.206552 297.475795 
L 440.019001 299.772846 
L 441.237674 303.477992 
L 442.050123 305.174496 
L 442.862572 306.238056 
L 443.67502 306.868542 
L 444.487469 307.237149 
L 445.706143 307.528056 
L 447.737265 307.717112 
L 451.799509 307.798528 
L 457.892875 307.70724 
L 460.330221 307.466252 
L 461.548894 307.165008 
L 462.361343 306.815699 
L 463.173792 306.264567 
L 463.986241 305.403057 
L 464.79869 304.097287 
L 465.611138 302.247579 
L 467.64226 296.998283 
L 468.048485 296.651597 
L 468.454709 296.791858 
L 468.860934 297.414498 
L 469.673382 299.678226 
L 470.892056 303.403594 
L 471.704505 305.125612 
L 472.516953 306.208562 
L 473.329402 306.851272 
L 474.141851 307.227031 
L 475.360524 307.523367 
L 477.391646 307.715646 
L 481.45389 307.798418 
L 487.547256 307.708704 
L 489.984603 307.471296 
L 491.203276 307.174834 
L 492.015725 306.831197 
L 492.828174 306.288982 
L 493.640622 305.440869 
L 494.453071 304.153309 
L 495.26552 302.323324 
L 497.296642 297.04024 
L 497.702867 296.660781 
L 498.109091 296.765114 
L 498.109091 296.765114 
" clip-path="url(#p651e6a17dd)" style="fill: none; stroke: #1f77b4; stroke-width: 1.5; stroke-linecap: square"/>
   </g>
   <g id="line2d_24">
    <path d="M 92.290909 124.9308 
L 104.071417 65.027626 
L 105.29009 60.16575 
L 106.102539 57.636397 
L 106.508763 56.702741 
L 106.914988 56.066397 
L 107.321212 55.802308 
L 107.727437 56.001875 
L 108.133661 56.774066 
L 108.539885 58.244525 
L 108.94611 60.551042 
L 109.352334 63.833217 
L 110.164783 73.772201 
L 110.977232 88.299231 
L 113.008354 130.606635 
L 113.820803 141.635904 
L 114.227027 145.203909 
L 114.633251 147.620775 
L 115.039476 149.061588 
L 115.4457 149.707134 
L 115.851925 149.722327 
L 116.258149 149.246872 
L 116.664373 148.393699 
L 117.476822 145.888174 
L 118.695495 140.932234 
L 120.726618 131.247428 
L 124.788862 110.33473 
L 132.100901 72.69918 
L 134.132023 63.424226 
L 135.350696 58.898685 
L 136.163145 56.76069 
L 136.569369 56.100677 
L 136.975594 55.80701 
L 137.381818 55.969852 
L 137.788043 56.696909 
L 138.194267 58.112723 
L 138.600491 60.354473 
L 139.006716 63.562137 
L 139.819165 73.333178 
L 140.631613 87.708902 
L 142.662735 130.113507 
L 143.475184 141.331352 
L 143.881409 144.987935 
L 144.287633 147.481904 
L 144.693857 148.986706 
L 145.100082 149.683609 
L 145.506306 149.739098 
L 145.912531 149.294809 
L 146.318755 148.465544 
L 147.131204 145.99226 
L 148.349877 141.061595 
L 150.380999 131.392955 
L 154.443243 110.487173 
L 161.755283 72.840989 
L 163.786405 63.545622 
L 165.005078 58.991469 
L 165.817527 56.820141 
L 166.223751 56.13684 
L 166.629975 55.814059 
L 167.0362 55.940733 
L 167.442424 56.6233 
L 167.848649 57.985181 
L 168.254873 60.162894 
L 168.661097 63.296701 
L 169.067322 67.513479 
L 169.879771 79.469697 
L 170.692219 95.623068 
L 172.317117 129.614037 
L 173.129566 141.020102 
L 173.53579 144.765944 
L 173.942015 147.337927 
L 174.348239 148.907664 
L 174.754464 149.656786 
L 175.160688 149.753303 
L 175.566912 149.340771 
L 175.973137 148.535878 
L 176.785586 146.095463 
L 178.004259 141.190551 
L 180.035381 131.538358 
L 184.097625 110.639606 
L 191.409664 72.982962 
L 193.440786 63.667494 
L 194.659459 59.08519 
L 195.471908 56.881071 
L 195.878133 56.174856 
L 196.284357 55.823419 
L 196.690581 55.914474 
L 197.096806 56.553189 
L 197.50303 57.861845 
L 197.909255 59.976253 
L 198.315479 63.03687 
L 198.721704 67.172303 
L 199.534152 78.959789 
L 200.346601 94.991617 
L 201.971499 129.1083 
L 202.783948 140.70212 
L 203.190172 144.537877 
L 203.596396 147.188776 
L 204.002621 148.824394 
L 204.408845 149.626607 
L 204.81507 149.764893 
L 205.221294 149.384719 
L 205.627518 148.604671 
L 206.439967 146.197765 
L 207.65864 141.319095 
L 209.283538 133.692006 
L 212.533333 117.143671 
L 221.47027 71.161687 
L 223.095168 63.789835 
L 224.313841 59.179833 
L 225.12629 56.943456 
L 225.532514 56.214696 
L 225.938739 55.835054 
L 226.344963 55.891033 
L 226.751188 56.486529 
L 227.157412 57.742664 
L 227.563636 59.794497 
L 227.969861 62.782599 
L 228.376085 66.837171 
L 229.188534 78.455591 
L 230.000983 94.36281 
L 231.62588 128.596372 
L 232.438329 140.377376 
L 232.844554 144.303676 
L 233.250778 147.034383 
L 233.657002 148.736831 
L 234.063227 149.593014 
L 234.469451 149.77382 
L 234.875676 149.426616 
L 235.2819 148.671892 
L 236.094349 146.29915 
L 237.313022 141.44722 
L 238.93792 133.835143 
L 242.187715 117.295272 
L 251.124652 71.301533 
L 252.74955 63.912637 
L 253.968223 59.275382 
L 254.780672 57.007271 
L 255.186896 56.25633 
L 255.59312 55.848929 
L 255.999345 55.870367 
L 256.405569 56.423271 
L 256.811794 57.627585 
L 257.218018 59.617575 
L 257.624242 62.533844 
L 258.030467 66.50806 
L 258.842916 77.957158 
L 259.655364 93.736804 
L 261.280262 128.078335 
L 262.092711 140.045841 
L 262.498935 144.063283 
L 262.90516 146.87468 
L 263.311384 148.644907 
L 263.717609 149.555948 
L 264.123833 149.780035 
L 264.530057 149.466421 
L 264.936282 148.737511 
L 265.748731 146.399599 
L 266.967404 141.574917 
L 268.592301 133.978117 
L 271.842097 117.446846 
L 280.779034 71.441571 
L 282.403931 64.035893 
L 283.622604 59.371822 
L 284.435053 57.072495 
L 284.841278 56.299729 
L 285.247502 55.865009 
L 285.653726 55.852436 
L 286.059951 56.363366 
L 286.466175 57.516556 
L 286.8724 59.445436 
L 287.278624 62.290561 
L 287.684848 66.184941 
L 288.497297 77.464542 
L 289.309746 93.113755 
L 290.934644 127.554275 
L 291.747093 139.70749 
L 292.153317 143.816644 
L 292.559541 146.709599 
L 292.965766 148.548556 
L 293.37199 149.515347 
L 293.778215 149.783488 
L 294.184439 149.504094 
L 294.590663 148.801497 
L 295.403112 146.499094 
L 296.621785 141.70218 
L 298.246683 134.120926 
L 301.496478 117.598391 
L 310.433415 71.5818 
L 312.058313 64.159596 
L 313.276986 59.46914 
L 314.089435 57.139104 
L 314.495659 56.344865 
L 314.901884 55.88326 
L 315.308108 55.837198 
L 315.714333 56.306769 
L 316.120557 57.409526 
L 316.526781 59.278026 
L 316.933006 62.052704 
L 317.33923 65.867788 
L 318.151679 76.977791 
L 318.964128 92.493815 
L 320.589025 127.024284 
L 321.401474 139.362301 
L 321.807699 143.563705 
L 322.213923 146.539073 
L 322.620147 148.44771 
L 323.026372 149.471153 
L 323.432596 149.784128 
L 323.838821 149.539595 
L 324.245045 148.863818 
L 325.057494 146.597618 
L 326.276167 141.828999 
L 327.901065 134.263566 
L 331.15086 117.749906 
L 340.087797 71.722217 
L 341.712695 64.283738 
L 342.931368 59.567321 
L 343.743817 57.207075 
L 344.150041 56.391711 
L 344.556265 55.903647 
L 344.96249 55.824613 
L 345.368714 56.253432 
L 345.774939 57.306442 
L 346.181163 59.115293 
L 346.587387 61.820227 
L 346.993612 65.55657 
L 347.806061 76.496947 
L 348.618509 91.877132 
L 350.243407 126.488457 
L 351.055856 139.010255 
L 351.46208 143.304413 
L 351.868305 146.363035 
L 352.274529 148.342301 
L 352.680753 149.423303 
L 353.086978 149.781903 
L 353.493202 149.572883 
L 353.899427 148.924442 
L 354.711876 146.695149 
L 355.524324 143.662936 
L 357.149222 136.37011 
L 359.992793 122.105463 
L 370.554627 68.026639 
L 372.179525 61.12609 
L 372.991974 58.369223 
L 373.804423 56.440239 
L 374.210647 55.926136 
L 374.616871 55.81464 
L 375.023096 56.203308 
L 375.42932 57.207254 
L 375.835545 58.957184 
L 376.241769 61.593081 
L 376.647993 65.251255 
L 377.460442 76.022052 
L 378.272891 91.263852 
L 380.304013 132.939511 
L 381.116462 143.038717 
L 381.522686 146.181419 
L 381.928911 148.23226 
L 382.335135 149.371736 
L 382.74136 149.776762 
L 383.147584 149.603915 
L 383.553808 148.983336 
L 384.366257 146.791671 
L 385.178706 143.78148 
L 386.803604 136.509654 
L 389.647174 122.255852 
L 400.209009 68.161185 
L 401.833907 61.236273 
L 402.646355 58.456134 
L 403.458804 56.490422 
L 403.865029 55.950696 
L 404.271253 55.807239 
L 404.677477 56.156351 
L 405.083702 57.111909 
L 405.489926 58.803647 
L 405.896151 61.37122 
L 406.302375 64.95181 
L 407.114824 75.553142 
L 407.927273 90.654117 
L 409.958395 132.478501 
L 410.770844 142.76657 
L 411.177068 145.99416 
L 411.583292 148.117521 
L 411.989517 149.316389 
L 412.395741 149.768651 
L 412.801966 149.632648 
L 413.20819 149.040466 
L 414.020639 146.887162 
L 414.833088 143.899417 
L 416.051761 138.563194 
L 418.489107 126.57004 
L 424.582473 94.873895 
L 429.050942 72.144564 
L 431.082064 62.952789 
L 432.300737 58.544076 
L 433.113186 56.542233 
L 433.51941 55.977292 
L 433.925635 55.802372 
L 434.331859 56.112516 
L 434.738084 57.020358 
L 435.144308 58.65463 
L 435.550532 61.154594 
L 435.956757 64.658201 
L 436.769206 75.090252 
L 437.581654 90.048067 
L 439.612776 132.010859 
L 440.425225 142.487923 
L 440.83145 145.801191 
L 441.237674 147.998014 
L 441.643898 149.257199 
L 442.050123 149.757517 
L 442.456347 149.65904 
L 442.862572 149.095798 
L 443.67502 146.981604 
L 444.487469 144.016737 
L 445.706143 138.698679 
L 448.143489 126.718638 
L 454.236855 95.025976 
L 458.705324 72.285704 
L 460.736446 63.072242 
L 461.955119 58.633034 
L 462.767568 56.595646 
L 463.173792 56.005893 
L 463.580016 55.8 
L 463.986241 56.071757 
L 464.392465 56.93255 
L 464.79869 58.510078 
L 465.204914 60.943155 
L 465.611138 64.37039 
L 466.423587 74.63341 
L 467.236036 89.445836 
L 469.267158 131.536635 
L 470.079607 142.202733 
L 470.485831 145.602449 
L 470.892056 147.87367 
L 471.29828 149.194103 
L 471.704505 149.743306 
L 472.110729 149.683045 
L 472.516953 149.149297 
L 472.923178 148.251431 
L 473.735627 145.685644 
L 474.9543 140.682423 
L 476.985422 130.967305 
L 481.047666 110.041621 
L 487.953481 74.411239 
L 489.984603 64.91081 
L 491.203276 60.070689 
L 492.015725 57.566609 
L 492.421949 56.650635 
L 492.828174 56.036468 
L 493.234398 55.800084 
L 493.640622 56.03403 
L 494.046847 56.848434 
L 494.453071 58.36994 
L 494.859296 60.736852 
L 495.26552 64.088342 
L 496.077969 74.182643 
L 496.890418 88.847555 
L 498.109091 115.405864 
L 498.109091 115.405864 
" clip-path="url(#p651e6a17dd)" style="fill: none; stroke: #ff7f0e; stroke-width: 1.5; stroke-linecap: square"/>
   </g>
   <g id="patch_3">
    <path d="M 72 320.4 
L 72 43.2 
" style="fill: none; stroke: #000000; stroke-width: 0.8; stroke-linejoin: miter; stroke-linecap: square"/>
   </g>
   <g id="patch_4">
    <path d="M 518.4 320.4 
L 518.4 43.2 
" style="fill: none; stroke: #000000; stroke-width: 0.8; stroke-linejoin: miter; stroke-linecap: square"/>
   </g>
   <g id="patch_5">
    <path d="M 72 320.4 
L 518.4 320.4 
" style="fill: none; stroke: #000000; stroke-width: 0.8; stroke-linejoin: miter; stroke-linecap: square"/>
   </g>
   <g id="patch_6">
    <path d="M 72 43.2 
L 518.4 43.2 
" style="fill: none; stroke: #000000; stroke-width: 0.8; stroke-linejoin: miter; stroke-linecap: square"/>
   </g>
   <g id="text_14">
    <!-- Masernmodell -->
    <g transform="translate(253.014375 37.2) scale(0.12 -0.12)">
     <defs>
      <path id="DejaVuSans-4d" d="M 628 4666 
L 1569 4666 
L 2759 1491 
L 3956 4666 
L 4897 4666 
L 4897 0 
L 4281 0 
L 4281 4097 
L 3078 897 
L 2444 897 
L 1241 4097 
L 1241 0 
L 628 0 
L 628 4666 
z
" transform="scale(0.015625)"/>
      <path id="DejaVuSans-6d" d="M 3328 2828 
Q 3544 3216 3844 3400 
Q 4144 3584 4550 3584 
Q 5097 3584 5394 3201 
Q 5691 2819 5691 2113 
L 5691 0 
L 5113 0 
L 5113 2094 
Q 5113 2597 4934 2840 
Q 4756 3084 4391 3084 
Q 3944 3084 3684 2787 
Q 3425 2491 3425 1978 
L 3425 0 
L 2847 0 
L 2847 2094 
Q 2847 2600 2669 2842 
Q 2491 3084 2119 3084 
Q 1678 3084 1418 2786 
Q 1159 2488 1159 1978 
L 1159 0 
L 581 0 
L 581 3500 
L 1159 3500 
L 1159 2956 
Q 1356 3278 1631 3431 
Q 1906 3584 2284 3584 
Q 2666 3584 2933 3390 
Q 3200 3197 3328 2828 
z
" transform="scale(0.015625)"/>
      <path id="DejaVuSans-64" d="M 2906 2969 
L 2906 4863 
L 3481 4863 
L 3481 0 
L 2906 0 
L 2906 525 
Q 2725 213 2448 61 
Q 2172 -91 1784 -91 
Q 1150 -91 751 415 
Q 353 922 353 1747 
Q 353 2572 751 3078 
Q 1150 3584 1784 3584 
Q 2172 3584 2448 3432 
Q 2725 3281 2906 2969 
z
M 947 1747 
Q 947 1113 1208 752 
Q 1469 391 1925 391 
Q 2381 391 2643 752 
Q 2906 1113 2906 1747 
Q 2906 2381 2643 2742 
Q 2381 3103 1925 3103 
Q 1469 3103 1208 2742 
Q 947 2381 947 1747 
z
" transform="scale(0.015625)"/>
     </defs>
     <use xlink:href="#DejaVuSans-4d"/>
     <use xlink:href="#DejaVuSans-61" x="86.279297"/>
     <use xlink:href="#DejaVuSans-73" x="147.558594"/>
     <use xlink:href="#DejaVuSans-65" x="199.658203"/>
     <use xlink:href="#DejaVuSans-72" x="261.181641"/>
     <use xlink:href="#DejaVuSans-6e" x="300.544922"/>
     <use xlink:href="#DejaVuSans-6d" x="363.923828"/>
     <use xlink:href="#DejaVuSans-6f" x="461.335938"/>
     <use xlink:href="#DejaVuSans-64" x="522.517578"/>
     <use xlink:href="#DejaVuSans-65" x="585.994141"/>
     <use xlink:href="#DejaVuSans-6c" x="647.517578"/>
     <use xlink:href="#DejaVuSans-6c" x="675.300781"/>
    </g>
   </g>
   <g id="legend_1">
    <g id="patch_7">
     <path d="M 421.526562 197.978125 
L 511.4 197.978125 
Q 513.4 197.978125 513.4 195.978125 
L 513.4 167.621875 
Q 513.4 165.621875 511.4 165.621875 
L 421.526562 165.621875 
Q 419.526562 165.621875 419.526562 167.621875 
L 419.526562 195.978125 
Q 419.526562 197.978125 421.526562 197.978125 
z
" style="fill: #ffffff; opacity: 0.8; stroke: #cccccc; stroke-linejoin: miter"/>
    </g>
    <g id="line2d_25">
     <path d="M 423.526562 173.720312 
L 433.526562 173.720312 
L 443.526562 173.720312 
" style="fill: none; stroke: #1f77b4; stroke-width: 1.5; stroke-linecap: square"/>
    </g>
    <g id="text_15">
     <!-- Infectious -->
     <g transform="translate(451.526562 177.220312) scale(0.1 -0.1)">
      <defs>
       <path id="DejaVuSans-66" d="M 2375 4863 
L 2375 4384 
L 1825 4384 
Q 1516 4384 1395 4259 
Q 1275 4134 1275 3809 
L 1275 3500 
L 2222 3500 
L 2222 3053 
L 1275 3053 
L 1275 0 
L 697 0 
L 697 3053 
L 147 3053 
L 147 3500 
L 697 3500 
L 697 3744 
Q 697 4328 969 4595 
Q 1241 4863 1831 4863 
L 2375 4863 
z
" transform="scale(0.015625)"/>
       <path id="DejaVuSans-63" d="M 3122 3366 
L 3122 2828 
Q 2878 2963 2633 3030 
Q 2388 3097 2138 3097 
Q 1578 3097 1268 2742 
Q 959 2388 959 1747 
Q 959 1106 1268 751 
Q 1578 397 2138 397 
Q 2388 397 2633 464 
Q 2878 531 3122 666 
L 3122 134 
Q 2881 22 2623 -34 
Q 2366 -91 2075 -91 
Q 1284 -91 818 406 
Q 353 903 353 1747 
Q 353 2603 823 3093 
Q 1294 3584 2113 3584 
Q 2378 3584 2631 3529 
Q 2884 3475 3122 3366 
z
" transform="scale(0.015625)"/>
      </defs>
      <use xlink:href="#DejaVuSans-49"/>
      <use xlink:href="#DejaVuSans-6e" x="29.492188"/>
      <use xlink:href="#DejaVuSans-66" x="92.871094"/>
      <use xlink:href="#DejaVuSans-65" x="128.076172"/>
      <use xlink:href="#DejaVuSans-63" x="189.599609"/>
      <use xlink:href="#DejaVuSans-74" x="244.580078"/>
      <use xlink:href="#DejaVuSans-69" x="283.789062"/>
      <use xlink:href="#DejaVuSans-6f" x="311.572266"/>
      <use xlink:href="#DejaVuSans-75" x="372.753906"/>
      <use xlink:href="#DejaVuSans-73" x="436.132812"/>
     </g>
    </g>
    <g id="line2d_26">
     <path d="M 423.526562 188.398437 
L 433.526562 188.398437 
L 443.526562 188.398437 
" style="fill: none; stroke: #ff7f0e; stroke-width: 1.5; stroke-linecap: square"/>
    </g>
    <g id="text_16">
     <!-- Susceptibel -->
     <g transform="translate(451.526562 191.898437) scale(0.1 -0.1)">
      <defs>
       <path id="DejaVuSans-53" d="M 3425 4513 
L 3425 3897 
Q 3066 4069 2747 4153 
Q 2428 4238 2131 4238 
Q 1616 4238 1336 4038 
Q 1056 3838 1056 3469 
Q 1056 3159 1242 3001 
Q 1428 2844 1947 2747 
L 2328 2669 
Q 3034 2534 3370 2195 
Q 3706 1856 3706 1288 
Q 3706 609 3251 259 
Q 2797 -91 1919 -91 
Q 1588 -91 1214 -16 
Q 841 59 441 206 
L 441 856 
Q 825 641 1194 531 
Q 1563 422 1919 422 
Q 2459 422 2753 634 
Q 3047 847 3047 1241 
Q 3047 1584 2836 1778 
Q 2625 1972 2144 2069 
L 1759 2144 
Q 1053 2284 737 2584 
Q 422 2884 422 3419 
Q 422 4038 858 4394 
Q 1294 4750 2059 4750 
Q 2388 4750 2728 4690 
Q 3069 4631 3425 4513 
z
" transform="scale(0.015625)"/>
       <path id="DejaVuSans-62" d="M 3116 1747 
Q 3116 2381 2855 2742 
Q 2594 3103 2138 3103 
Q 1681 3103 1420 2742 
Q 1159 2381 1159 1747 
Q 1159 1113 1420 752 
Q 1681 391 2138 391 
Q 2594 391 2855 752 
Q 3116 1113 3116 1747 
z
M 1159 2969 
Q 1341 3281 1617 3432 
Q 1894 3584 2278 3584 
Q 2916 3584 3314 3078 
Q 3713 2572 3713 1747 
Q 3713 922 3314 415 
Q 2916 -91 2278 -91 
Q 1894 -91 1617 61 
Q 1341 213 1159 525 
L 1159 0 
L 581 0 
L 581 4863 
L 1159 4863 
L 1159 2969 
z
" transform="scale(0.015625)"/>
      </defs>
      <use xlink:href="#DejaVuSans-53"/>
      <use xlink:href="#DejaVuSans-75" x="63.476562"/>
      <use xlink:href="#DejaVuSans-73" x="126.855469"/>
      <use xlink:href="#DejaVuSans-63" x="178.955078"/>
      <use xlink:href="#DejaVuSans-65" x="233.935547"/>
      <use xlink:href="#DejaVuSans-70" x="295.458984"/>
      <use xlink:href="#DejaVuSans-74" x="358.935547"/>
      <use xlink:href="#DejaVuSans-69" x="398.144531"/>
      <use xlink:href="#DejaVuSans-62" x="425.927734"/>
      <use xlink:href="#DejaVuSans-65" x="489.404297"/>
      <use xlink:href="#DejaVuSans-6c" x="550.927734"/>
     </g>
    </g>
   </g>
  </g>
 </g>
 <defs>
  <clipPath id="p651e6a17dd">
   <rect x="72" y="43.2" width="446.4" height="277.2"/>
  </clipPath>
 </defs>
</svg>
